<svg xmlns="http://www.w3.org/2000/svg" viewBox="0 0 512 512"><title>facebook-handdrawn</title><g style="isolation:isolate"><g id="Layer_1" data-name="Layer 1"><path d="M255,88.55c3.29,5.72,102.09-69.88,106.75-61.78,2.88,5-82.82,57-78.68,64.21C286,96.09,360.24,37.21,364.17,44,366.43,48,329,84.85,330.8,88c2.73,4.74,58.09-39,60.39-35S333,101.87,335.75,106.6s64.63-43.05,67.07-38.82c3,5.27-76.78,59.67-73.63,65.13,4,7,91.17-60.67,94.59-54.74" fill="none" stroke="#000" stroke-linecap="round" stroke-linejoin="round" stroke-width="6.97"/><path d="M271.15,146.86c.46.8,16.71-11.16,17.35-10,1.3,2.26-18,33-17,34.84,6.4,11.11,144.52-97.48,150.5-87.1,6.36,11.05-134.2,88.21-128.36,98.35,6.35,11,135.43-94.14,142.24-82.32,5.92,10.27-117.39,74.43-111.6,84.48,6.18,10.73,115.72-79,120.94-70,4.61,8-127.13,86.65-122,95.59,5.82,10.1,128.25-87.12,133.82-77.45,6.84,11.88-138.92,85.59-133.43,95.13,6.17,10.71,139.72-93.68,145.26-84.07" fill="none" stroke="#000" stroke-linecap="round" stroke-linejoin="round" stroke-width="6.97"/><path d="M275.14,233.18c.13.22,7.89-4.84,8-4.64,1,1.79-5.72,24.79-4.93,26.16,2,3.52,32.29-23.37,34.31-19.86,2.6,4.51-49.34,45.78-46.63,50.48C275.39,301.81,479.56,142,488,156.77c9.71,16.87-217.26,125.2-209.12,139.32C287.48,310.95,467.54,164,477.43,181.21c6.89,12-207.26,120.18-199,134.56,8.44,14.66,207.27-141,216.34-125.21,10.71,18.6-227.87,131.67-218.86,147.31s206.32-136.5,213.71-123.68C497.85,228.43,261.85,344.77,273,364.08,281.67,379.19,492,213,502.53,231.21c7.58,13.16-237.2,136.91-229,151.11,7.84,13.61,221.6-151.11,231.48-134,10.94,19-238.3,136.49-229.64,151.52,9.57,16.62,220.09-148,229-132.54C516,287.56,253.41,403.79,265.09,424.07c10.49,18.21,228.32-148.78,235.51-136.3" fill="none" stroke="#000" stroke-linecap="round" stroke-linejoin="round" stroke-width="6.97"/><path d="M170.94,186.52c1.24,2.15,35.61-23.25,36.75-21.27" fill="none" stroke="#000" stroke-linecap="round" stroke-linejoin="round" stroke-width="6.97"/><path d="M110.36,56.58c2.14,3.72,37.21-26.16,39.21-22.69,3.84,6.67-91.64,64.12-87.84,70.72,6.34,11,155.29-106.39,162.43-94C232.06,24.35,29.91,128.94,37,141.27,44.63,154.5,252.16-8.24,263,10.51,272.3,26.73,7.63,161.21,16.38,176.39,28.59,197.6,293-11.1,304.83,9.45,319.53,35-4.32,182.33,8.81,205.13,19.9,224.38,320.83-9.75,335.64,16,350.25,41.33,1.28,198.67,14.78,222.11,28.1,245.25,342.77-2.24,357.69,23.65c16.56,28.76-360.43,199.48-347,222.77,9.5,16.49,189.58-129.61,198.17-114.69,8.14,14.13-209,121-199.15,138.15C16.65,282,209.21,136.61,216.9,150c8,13.85-206.62,124.32-198.64,138.17,7.32,12.7,152-100.88,157.58-91.2C182,207.59,5.45,302.47,12.45,314.61c7.31,12.69,147.86-99,153.65-88.93C171.7,235.41,17.7,322,23.63,332.33c5.75,10,163.19-107.87,169-97.8C199.26,246,28.17,334.91,34,345.11c7.51,13,166.34-116.72,175.17-101.38C215.77,255.11,34,348.91,42.39,363.43S208.6,254.55,214.08,264.06c7.86,13.65-183.4,112.74-176.25,125.15,5.47,9.49,162.4-108.06,168.48-97.51,7.4,12.85-154,96.4-147.79,107.17C65.59,411.15,209.3,298,215.19,308.19c5.72,9.93-156.87,99.9-151.49,109.25,6.44,11.18,136.19-94,142.76-82.62,4.69,8.14-130.42,88.5-125.55,97,5.19,9,120.39-83.17,126.22-73,4.57,7.93-115.07,72.19-109.51,81.85,3.71,6.43,109.26-72.21,113.14-65.48,4.94,8.58-103.56,74.41-99.09,82.18,3.83,6.65,91.59-60.49,94.82-54.88,3.09,5.37-84.11,64.1-81,69.44,2.5,4.34,88.09-58.92,91.52-53,3.66,6.36-75.13,58.61-71.73,64.51,3.1,5.39,103.93-70.56,108.42-62.75,3.73,6.47-81,60.5-78.11,65.53,10.9,18.92,311-205,321.81-186.25,11.74,20.39-311.72,167.87-298.3,191.16C209.15,508.56,469.29,307,481.27,327.76c8.7,15.11-262.46,150.55-252,168.75,11.56,20.08,243.49-169.38,255.79-148C495.48,366.54,246,489.21,254.54,504S451.31,373,458.71,385.81c6.32,11-149.52,99.74-144.39,108.66,3.85,6.69,110.23-75.14,115.13-66.63" fill="none" stroke="#000" stroke-linecap="round" stroke-linejoin="round" stroke-width="6.97"/><g opacity="0.8"><path d="M248.35,92.4c4.74,8.23,108.31-73,112.75-65.26,3.49,6.06-65.21,51.71-61.67,57.87,3.12,5.42,72.61-50.66,76.34-44.18,2.08,3.6-47.47,50.05-45.21,54,2.49,4.33,55.78-38.34,58.4-33.8,3.18,5.53-69.42,58.49-66.68,63.25,3.11,5.4,88.6-59.82,92.29-53.41" fill="none" stroke="#000" stroke-linecap="round" stroke-linejoin="round" stroke-width="6.97"/><path d="M282.59,140.24c.65,1.13,4.64-4.11,5.26-3,1.31,2.27-24.88,32.08-23.68,34.17,2.22,3.86,59-38.46,60.83-35.21s-44.16,47.37-41.82,51.44c6.11,10.61,157.34-103.1,162.54-94.07S307,183.09,313,193.42c6.36,11,133.53-87.54,138-79.85,6.75,11.72-140,88.4-133.05,100.52,5.2,9,150.12-97.8,154.84-89.61" fill="none" stroke="#000" stroke-linecap="round" stroke-linejoin="round" stroke-width="6.97"/><path d="M268.49,237c.12.2,13.84-8.4,14-8.11,1.3,2.25-12.75,31.65-11.65,33.55,6.48,11.26,198.65-135.94,207.71-120.21,10.28,17.85-212.28,127.24-202.66,144,9.15,15.88,196.81-136.7,206.66-119.6,11,19.13-225.87,127-215,145.9C276.44,327.93,476,171.74,484.72,186.84,494.9,204.52,265.79,322.7,273.07,335.33,280.68,348.54,487.5,193,495.38,206.66c7.21,12.52-224.27,132.91-216.27,146.79,10.62,18.43,209-143.41,218.69-126.57,9.38,16.29-235.16,136.76-225.1,154.22,7.32,12.71,208.61-144.83,219-126.76C499.93,268.59,263.07,396.52,271,410.24c9.52,16.52,210.8-146.76,221.5-128.19" fill="none" stroke="#000" stroke-linecap="round" stroke-linejoin="round" stroke-width="6.97"/><path d="M182.38,179.9c1.13,2,23.59-16.13,24.66-14.27" fill="none" stroke="#000" stroke-linecap="round" stroke-linejoin="round" stroke-width="6.97"/><path d="M103.7,60.43c2,3.42,61.42-39.91,63.31-36.64C171.75,32,44.56,106,49.74,115c7.41,12.86,165-112.87,172.54-99.86,9.26,16.08-205.09,127.19-197.72,140C36.37,175.68,257.28.13,266.07,15.39,276.6,33.67,7.55,164.41,19.19,184.62,32.43,207.62,293.32,1,304.1,19.73c12.66,22-295,169.42-284.53,187.56C35.26,234.52,328.71-2.71,342.13,20.6,357.72,47.66,4.39,208.95,16.71,230.35c9.67,16.79,190.07-127.72,197.72-114.43,7,12.21-214.73,121.5-204.29,139.62,8.18,14.2,195.08-132.4,203.51-117.78C222.76,153.57-2.18,263.68,7.93,281.23c6.93,12,155.46-106,162.39-94,7.84,13.62-168.1,107.87-161.71,119,7.31,12.69,157.18-104,162.8-94.22S19.74,315.26,25.14,324.63c7.61,13.21,159-109.15,166.37-96.29C200,243.08,11.88,336.26,19.89,350.16c7.33,12.73,185.37-120.91,191.25-110.69C217.6,250.69,38.71,350.26,44.55,360.4c6,10.5,148.1-102,155.14-89.79,7.76,13.47-156.86,100-149.09,113.45,6.17,10.71,145.34-98.94,151.74-87.82,4.88,8.48-147.44,93.87-140.16,106.51,5.69,9.88,145.23-97.73,151.14-87.47,7,12.17-151.13,95.73-143.83,108.4,5.1,8.86,125.81-83.6,130.47-75.51S79.31,427.07,84.6,436.24c4,6.89,111.39-73.49,115.29-66.72,4.72,8.2-102.51,70.56-97.33,79.54,4.18,7.26,91.57-64.65,96.61-55.91,3.59,6.23-78,57.71-74.42,64,3.06,5.31,79.22-53.6,82.57-47.79,4.07,7.07-75.84,59.6-72.86,64.78,3.6,6.24,88.07-57.58,90.92-52.62S161.55,476.16,164.9,482s96.3-67.13,101.22-58.58c3.5,6.08-87.89,64.79-83.48,72.44C193.5,514.7,475.43,294.33,489.28,318.38c12.35,21.44-273.15,156.32-262,175.66,11,19.11,247.21-165.3,256.81-148.63,10.43,18.12-230,139.65-221,155.24,6.91,12,181.12-126.31,190.4-110.19,6.15,10.67-138.31,88.86-133,98.1,3.65,6.34,104-72.73,109.44-63.34" fill="none" stroke="#000" stroke-linecap="round" stroke-linejoin="round" stroke-width="6.97"/></g><g opacity="0.7" style="mix-blend-mode:multiply"><path d="M253.7,10.51c-5.16,0-10.34-1.95-15.43-1.63S227.74,8,222.69,8.62s-9.62,5.29-14.63,6.24-10.94-1.64-15.88-.37-8.55,7.44-13.41,9-9.7,3-14.45,4.87-11.66-1-16.28,1.21-6.74,9.48-11.22,12-8.56,5.4-12.88,8.15-11.71,1.06-15.85,4.08-4.31,11.18-8.26,14.45S88.15,70.47,84.42,74,77.31,81.6,73.8,85.34s-5.92,8.58-9.19,12.54S59,106.54,56,110.7s-4.89,9-7.65,13.35-6.93,7.77-9.41,12.28-1.68,10.56-3.87,15.22-9,7.23-10.92,12-1.39,10.46-3,15.37-3.94,9.55-5.22,14.54-4.18,9.67-5.14,14.75,1.5,10.66.86,15.79-2.46,10.05-2.78,15.22,2.27,10.27,2.27,15.44-3.31,10.39-3,15.49,2,10.2,2.66,15.28-1.52,10.77-.57,15.8,7.29,9,8.56,13.91,3.23,9.61,4.81,14.48.83,10.54,2.71,15.3,2,10.39,4.21,15,5.78,8.68,8.25,13.17,3,10.29,5.77,14.62,8.33,6.86,11.34,11S60.71,408.06,64,412s5.6,8.94,9.11,12.69,7.43,7.34,11.17,10.86,10.63,3.5,14.58,6.78,7.38,7.08,11.53,10.11,9.32,4.32,13.65,7.08,7.65,7,12.15,9.46,8.56,5.73,13.21,7.93,9,5,13.81,6.92,10.49,1,15.38,2.6,10,1.61,15,2.89,9.6,3.16,14.66,4.13,9.76,3.13,14.87,3.77,10,3.42,15.11,3.74,10.3-.87,15.46-.87,10.08-3.53,15.17-3.84,10.8,5.2,15.85,4.57,9.85-4.09,14.87-5,9.92-2.66,14.87-3.93,10-2.43,14.83-4,8.9-5.36,13.65-7.25,9.61-3.31,14.24-5.49,9.23-4.28,13.71-6.75,9.91-3.35,14.23-6.11,10.17-3.5,14.31-6.52,8.45-6.18,12.4-9.46,5.12-9.83,8.86-13.35,9.73-4.85,13.24-8.6,6.75-7.92,10-11.88,7-7.75,10-11.9,1.8-11.22,4.55-15.56,8.49-6.86,11-11.37,1.92-10.53,4.11-15.19,6.44-8.35,8.33-13.14,3-9.86,4.55-14.76,1-10.32,2.28-15.31,6.86-9,7.82-14.06-1.61-10.68-1-15.81,3.47-10,3.79-15.15-.64-10.32-.64-15.5,2.81-10.52,2.5-15.61-3.06-10.2-3.69-15.27-1.48-10.26-2.43-15.29.17-10.73-1.1-15.69-7.2-8.69-8.78-13.56.84-11.3-1-16.07-9.52-7.09-11.7-11.72-4.17-9.22-6.64-13.71-3.44-9.78-6.19-14.11-6.26-8.07-9.28-12.22-4.77-9.25-8-13.2-5.81-8.63-9.32-12.37-9.9-4.55-13.64-8.07-5.69-9-9.64-12.23-8.3-6-12.45-9S390,48.91,385.7,46.15s-9.9-3.45-14.4-5.93-7.71-7.55-12.36-9.75-10.49-1.69-15.27-3.59-10.39-1-15.29-2.61-9.66-2.67-14.65-4-9.28-4.77-14.34-5.73-9.95-2.3-15.06-2.95-10.28,1.1-15.43.78S258.86,10.51,253.7,10.51Zm73.19,129.11c-4.9-1.14-10.63-3.51-15.33-4.11-5-.64-10-2.69-14.71-2.69-9.21,0-14.74,5.69-18.66,10.1-2.45,2.45-7.53,5-8.47,10.35-.64,3.64,3.92,8.38,3.92,13.31,0,8.4-6.61,9.28-.88,15.41,5.38,5.75,6.38,4.73,14.24,4.73s7.87-5.54,15.74-5.54,12.22-5.33,17.64.39c5.71,6-4.84,10.12-4.84,18.43s6.32,8.31,6.32,16.63.51,8.87-5.2,14.9c-5.41,5.72-6-.27-13.91-.27s-7.87,1.39-15.74,1.39-9.88-4.67-15.45.91,1.3,7.58,1.3,15.46S271,256.9,271,264.78s3.46,7.88,3.46,15.76-5.25,7.88-5.25,15.75,2.39,7.88,2.39,15.76-1,7.88-1,15.76-1.82,7.88-1.82,15.76,3.3,7.88,3.3,15.76-1.36,7.88-1.36,15.75,2.74,7.88,2.74,15.77S270,398.74,270,406.63s6.81,10.19,1.24,15.76-7.87-3-15.75-3-7.89,5.36-15.79,5.36-7.9.59-15.8.59-10.39,2.88-16-2.71,2-8.08,2-16-1.37-7.88-1.37-15.76,2.47-7.88,2.47-15.76-3.19-7.88-3.19-15.75,1.71-7.88,1.71-15.76,1.54-7.88,1.54-15.76-.23-7.88-.23-15.76-4.58-7.88-4.58-15.76.89-7.88.89-15.75-1.84-7.88-1.84-15.77,1.92-7.89,1.92-15.78,6.84-10.65,1-15.92c-6.54-5.87-8.9-.89-17.68-.89s-12.37,8.34-18.75,2.3c-6-5.7-2-9.58-2-17.89s.83-8.31.83-16.63-4.34-11.59,1.69-17.3c6.38-6,9.41,2.07,18.19,2.07s11.44,4.92,17.6-1.36-3.35-9-3.35-17.95c0-5.47,6.17-10.37,6.48-15.08.37-5.58-1.69-10.8-.89-15.31,1-5.76,1.84-10.88,3.53-14.88a44.26,44.26,0,0,1,10.09-14c3.83-3.73,7.47-9,12.94-12,4.18-2.34,9.48-3.83,14.52-5.28a95.57,95.57,0,0,1,15-2.7c4.71-.55,9.88,1.19,15.15,1.19,4.48,0,8.71,2.85,13.13,3.18s8.62,1,13,1.63,9.46-2.58,13.82-1.57,6,3.21,10.29,4.55c.68,7.45-1.06,6.72-2.48,14.06s-3.22,7.51-3.51,15C325.63,132.06,330.6,133.12,326.89,139.62Z" fill="none" stroke="#000" stroke-linecap="round" stroke-linejoin="round" stroke-width="9.88"/></g><g opacity="0.8" style="mix-blend-mode:multiply"><path d="M253.7,7.85c-6.15,0-12.11,3.63-18.15,4.08S223,9.93,217,10.83s-11.21,6.28-17.12,7.63-13-1.52-18.82.27-12.52,1.85-18.18,4.08-8.28,11.6-13.76,14.25-12.9,1.49-18.18,4.55-12,4.15-17,7.6S107.38,61,102.61,64.77s-12.73,4-17.2,8.11-6.95,10.48-11.1,15-6.78,10.2-10.6,15-6.88,9.92-10.32,15S48.27,128.73,45.21,134,33.7,141.67,31,147.2s-3.37,12-5.61,17.68-8.3,10.23-10.1,16.1,4.93,14,3.57,20-8.44,10.75-9.34,16.84-1,12.29-1.48,18.44-1.25,12.28-1.25,18.45,3.1,12.23,3.55,18.28-.62,12.43.28,18.44,5.32,11.43,6.66,17.37.46,12.49,2.25,18.31S23.76,338.6,26,344.27s4.21,11.53,6.85,17,7.72,9.68,10.77,15,6.94,9.86,10.38,14.9,4,12.18,7.76,17S73.45,414,77.6,418.47s2.06,15.24,6.54,19.4,14.26,2.22,19,6,7.34,10.44,12.39,13.89,11.89,3.84,17.19,6.91,10.66,5.43,16.17,8.1,10.85,5,16.55,7.24,9.41,10,15.26,11.77,12.87-.84,18.85.52,12,1,18.09,1.92,11.78,2.29,17.91,2.75,12,2.86,18.12,2.86,12-4.13,18-4.58,13.1,7,19.1,6.09,10.53-10.24,16.45-11.59,13.92,4.78,19.73,3,11.63-4.58,17.29-6.81,11.48-4.84,17-7.49,11-5.84,16.26-8.9,9.72-7.79,14.75-11.23,12.14-4.49,16.91-8.3,5.44-12.58,9.92-16.74,6.91-10.08,11.06-14.56,11.29-6.21,15.1-11,3.74-12.24,7.18-17.3,8.38-8.87,11.44-14.17,9.65-8.7,12.31-14.23,1.48-12.69,3.71-18.41,6.11-10.72,7.91-16.59,6.07-11.13,7.43-17.12,4.23-11.9,5.14-18-2.38-12.73-1.93-18.88,3.55-12.22,3.55-18.38-7.36-12-7.81-18.07-.07-12.11-1-18.12-3.32-11.61-4.67-17.54-3.26-11.49-5.05-17.32-3.93-11.25-6.15-16.92-4.31-11.12-7-16.61-4-11.45-7-16.74-2-13.18-5.45-18.23-8.14-9.35-11.95-14.12-6.1-11.11-10.25-15.6-12.07-5.31-16.54-9.47-6.64-11.05-11.42-14.87-13.11-2.72-18.15-6.17-9.33-7.67-14.63-10.74-11.07-4.68-16.58-7.34S348.74,28.71,343,26.47,331.77,21.8,325.91,20s-11.29-5.25-17.28-6.61S296,14.91,289.89,14,278.18,9.7,272,9.25,259.85,7.85,253.7,7.85Zm70.82,130.59c-4.9-1.14-8.61.5-13.31-.1-5-.64-9.61-4.09-14.35-4.09-9.21,0-13.4,5.55-17.31,10-4.12,4.13-9.73,10.25-9.73,22.37,0,8.4-6.92,13.18-1.18,19.31,5.38,5.75,10.52-6.39,18.39-6.39s7.87,4.51,15.74,4.51,7.94-4.08,13.36,1.64c5.71,6,4.85,6,4.85,14.35s-5.1,8.31-5.1,16.63,8.39,10.64,2.69,16.68c-5.41,5.72-7.92,1.75-15.78,1.75s-7.87.58-15.74.58-7.56-5.82-12.6.24c-6,7.26-5.43,6.83-5.43,16.29s1.93,9.46,1.93,18.91-4.23,9.45-4.23,18.91,8.6,9.45,8.6,18.91-6.08,9.45-6.08,18.91.57,9.46.57,18.91-.57,9.46-.57,18.92,2.88,9.46,2.88,18.91-1.76,9.46-1.76,18.93,9.58,14.38,2.56,20.7c-7.83,7-12.11-1.94-22.63-1.94s-10.53.38-21.06.38-13,6.6-20.85-.44c-7-6.31-2.43-9.23-2.43-18.69S205,394,205,384.59s3.82-9.45,3.82-18.91-5.28-9.45-5.28-18.91,9.07-9.45,9.07-18.91-7.86-9.46-7.86-18.91,3.78-9.46,3.78-18.92-3.33-9.46-3.33-18.91-.43-9.46-.43-18.93,7.32-9.72.89-16.65c-6-6.44-6.34-5-15.12-5s-12.31,10-18.69,3.93c-6-5.7-2-9.51-2-17.82s.74-8.31.74-16.63-3.78-11,2.24-16.76c6.38-6,8.9-4,17.68-4s14.31,13.23,20.46,7-7.16-11.82-7.16-20.77c0-8.55,8.34-15.74,9.11-22.43,1-9.15,1.87-15.78,4.25-21.43a37.64,37.64,0,0,1,9.06-13.12,57.82,57.82,0,0,1,13.19-9.78c6.12-3.42,12.05-7.18,20-8.72,6.79-1.31,14,1.47,22.16,1.47,6,0,12.08-5.9,18-5.31s12.44-.9,18.29.29,10.56,6.73,16.3,8.51c.69,11.2,2,11.64.17,22.73S329,128.16,324.51,138.44Z" fill="none" stroke="#000" stroke-linecap="round" stroke-linejoin="round" stroke-width="6.59"/></g></g></g></svg>