<svg xmlns="http://www.w3.org/2000/svg" viewBox="0 0 512 512"><title>twitter-handdrawn</title><g style="isolation:isolate"><g id="Layer_1" data-name="Layer 1"><path d="M104.54,125.08c8.63,15,191.9-126.68,198.65-115s-193,114.16-185.24,127.66C125.43,150.76,309.07,10.7,316.18,23,325,38.41,124.87,142.39,132,154.75c9.22,16,205.84-142.12,215.77-124.88,10.35,18-208.46,127.48-201.48,139.59,10.35,18,224.62-150.22,233.35-135.05,7,12.16-206.3,126.55-198.49,140.11,10.38,18,197.67-135.26,206.68-119.62,6.84,11.88-193.66,120.77-187.33,131.76,3,5.21,62.15-42.51,65-37.6,2.12,3.69-52.22,42.65-49.35,47.64,1.52,2.64,35.61-24.45,37.27-21.57,1.28,2.22-14,27.39-12.74,29.53.22.38,16.76-10.27,17-9.84" fill="none" stroke="#000" stroke-linecap="round" stroke-linejoin="round" stroke-width="6.97"/><path d="M295.56,118.26c4.55,7.9,100-66.27,103.59-60,2.45,4.26-52.93,43.49-50.39,47.9,3.05,5.3,59.29-41.5,62.39-36.11,2.86,5-55.41,50.47-52.76,55.07,2.93,5.09,63.87-43.07,66.51-38.49,2.52,4.38-47.18,43.49-44.93,47.39,2.46,4.27,67.88-45.84,70.71-40.92C452.2,95.79,412.19,130.82,414,134c1.49,2.58,45.18-29.46,46.61-27,1.69,2.94-42.27,39.82-40.6,42.71,2.22,3.85,44.94-30.53,46.9-27.14,2.47,4.28-53.07,43.76-51,47.33s58.73-38.51,60.68-35.12c3,5.26-87.44,63.6-84.29,69.07,2.49,4.32,88.26-58.87,91.62-53,3.11,5.4-83.27,59-79.43,65.67s78.42-51.9,81.23-47c4.77,8.29-90.55,66.61-86.79,73.14,4.12,7.16,83.65-57.37,87.52-50.65,4.18,7.25-110.63,73.9-104.93,83.8,3.76,6.53,102.29-70,106.94-61.89,5.66,9.84-117.63,78.68-113.27,86.25,4.57,7.94,119.76-82.09,125.28-72.51,7.2,12.5-181.77,115.76-175.56,126.54,7.52,13.05,166.55-112.51,173.51-100.42" fill="none" stroke="#000" stroke-linecap="round" stroke-linejoin="round" stroke-width="6.97"/><path d="M81.42,371.41c2.31,4,76.37-50.87,79.25-45.87,2,3.52-30.24,38.12-28.31,41.47,2.09,3.62,45.9-29.93,47.35-27.41" fill="none" stroke="#000" stroke-linecap="round" stroke-linejoin="round" stroke-width="6.97"/><path d="M130.58,283.37c.42.74,2.6-2.73,3.13-1.81" fill="none" stroke="#000" stroke-linecap="round" stroke-linejoin="round" stroke-width="6.97"/><path d="M94,214.71c.5.86,22.4-14.39,23-13.32.9,1.56-5.8,23.42-5.11,24.62.09.15,13.66-8.15,13.76-8" fill="none" stroke="#000" stroke-linecap="round" stroke-linejoin="round" stroke-width="6.97"/><path d="M118.86,55.83c2.06,3.57,41.27-29.74,43.8-25.35,5.22,9.06-104.37,71.66-100.61,78.18C69.3,121.24,226.21-.66,232.39,10.08c7.16,12.43-195.63,117.93-188,131.1C53.18,156.51,253.36.63,261.82,15.32,272.73,34.26,23.24,158,31.21,171.87c2.28,4,64.59-44,67.44-39,3.89,6.75-81.14,59.4-77.23,66.19,2.9,5,64.71-44,67.54-39.09,3.66,6.36-74.55,55.28-71.67,60.28,3.6,6.24,67.33-47.37,71-41.07,3.93,6.83-82.14,58.78-78,65.92,3.36,5.84,93.8-63.59,97.82-56.61,4.6,8-94.13,65.72-90,73,2.58,4.48,79.49-52.1,82.12-47.53,3.8,6.6-98.89,66.85-94,75.27C8.78,293.7,84.45,236.3,87.71,242c3.8,6.59-82,62.12-78.22,68.61,3.61,6.28,98.59-63.48,101.37-58.67,4.81,8.35-99.49,74-95.95,80.13,3.64,6.32,95.14-64.26,99.12-57.36,4.92,8.54-96.17,69.13-92.45,75.59s86.18-58.79,90-52.11c4,6.88-77.46,56.34-73.72,62.83s91.41-59.89,94.43-54.65c3.67,6.37-84.38,60.61-80,68.24,4.5,7.82,84.45-59.48,89-51.53,4.18,7.26-94.74,63.93-90.45,71.38,1.23,2.14,35.07-22.86,36.18-20.94,1.66,2.89-32.61,35.89-31,38.59,1.9,3.29,43-28.05,44.35-25.67,1.59,2.76-27.61,32.15-26.17,34.66,2.14,3.72,47.12-31.25,48.84-28.26,2.14,3.72-37.75,38.65-35.44,42.65s63-43,65.87-38.12c2.58,4.48-44.92,44.13-42.24,48.78,3,5.14,69-47.68,72.37-41.88,2.72,4.73-62.73,52.77-59.91,57.65,4.69,8.15,97.37-67.67,102.26-59.18,3.32,5.77-80.74,59.79-77.22,65.9,15,26.11,338.73-233.24,354.8-205.34,12.67,22-356.84,189.31-340.24,218.15,13.77,23.9,327.22-220.7,340.75-197.21S158.59,467.52,174.48,495.1C185.78,514.72,477.66,295.72,488,313.65c14.52,25.2-305.7,163.14-291.89,187.11,9.88,17.15,291-191.57,301-174.19,11.51,20-275.68,149.41-263.31,170.88s239.35-160,248.64-143.9c7.43,12.89-231.24,134.64-223.6,147.9,8.69,15.09,197-135.71,206.39-119.45C471,392,301.93,487.64,308,498.2c4.09,7.1,117.16-77.68,121.42-70.27" fill="none" stroke="#000" stroke-linecap="round" stroke-linejoin="round" stroke-width="6.97"/><g opacity="0.8"><path d="M109.48,122.22C118,137,295.63-5.19,304.13,9.57,313,25,109.32,129.1,116.62,141.77c9.68,16.81,204-139.06,213.05-123.3C336.85,30.93,130.42,132.62,139.87,149,149,164.86,338.25,13,347.43,28.9c9.86,17.12-196.3,123-189.77,134.35C167.81,180.86,368.13,19.55,377.58,36c8.68,15.07-216.5,129.61-208,144.4,8.15,14.15,206.09-136.49,213.53-123.58,7,12.11-202.64,117.41-193.85,132.67,3.41,5.91,75.7-49.11,78-45.14,2.15,3.74-54.79,46.66-52.16,51.22,1.52,2.63,34-23.28,35.54-20.57.78,1.36-2.58,20.56-1.89,21.76.43.74,2.84-2.53,3.22-1.87" fill="none" stroke="#000" stroke-linecap="round" stroke-linejoin="round" stroke-width="6.97"/><path d="M300.49,115.4c4.5,7.81,95.09-65.48,99.6-57.64,2.07,3.6-52.86,46.94-50.43,51.15s71.17-46.85,73.62-42.61c2.27,3.93-52.86,53.6-50.62,57.5,2.85,4.94,54.92-37.26,57.28-33.15.86,1.49.7,20.78,1.46,22.09,1,1.7,20.67-13.84,21.48-12.43,2.4,4.16-50.36,49.82-47.84,54.19,2,3.48,57-37.79,59.07-34.19,2.32,4-60.65,52.34-57.55,57.72,3,5.21,65.33-44.55,68.24-39.49,3.53,6.12-79.42,64.5-75.42,71.46,3,5.17,81.9-56.66,85.9-49.71,4.43,7.7-89.46,68.81-85.22,76.18,3.36,5.84,86.74-58.26,90.22-52.22,6,10.42-115.74,80.21-111,88.41,3.54,6.15,121-78.63,124.73-72.19,5.81,10.09-131.69,87.83-125.57,98.44,5.65,9.82,118.65-78.52,122.9-71.13,6.74,11.7-180.21,111.27-173,123.78,7.76,13.48,163.84-108.84,169.9-98.33" fill="none" stroke="#000" stroke-linecap="round" stroke-linejoin="round" stroke-width="6.97"/><path d="M86.36,368.56c2.27,3.94,54.85-37.09,57.16-33.08,1.6,2.77-30.59,34.07-28.91,37,2.08,3.61,47.87-32.78,50.06-29" fill="none" stroke="#000" stroke-linecap="round" stroke-linejoin="round" stroke-width="6.97"/><path d="M117.41,291c.42.73,16.81-10.72,17.23-10" fill="none" stroke="#000" stroke-linecap="round" stroke-linejoin="round" stroke-width="6.97"/><path d="M99,211.85c.49.85.42-1.41.92-.54.69,1.2,20.21,8.78,21.15,10.4,0,.08,1.42-1,1.48-.85" fill="none" stroke="#000" stroke-linecap="round" stroke-linejoin="round" stroke-width="6.97"/><path d="M105.7,63.45c2,3.52,55.8-37.17,57.9-33.51,4.81,8.35-114.92,76.25-109.12,86.32C61,127.6,222.92-.25,231.14,14,240.56,30.38,23.69,144.28,30.49,156.09c9.34,16.21,235-155,243.18-140.74,12,20.84-261.55,156-252.94,171,3.44,6,69.29-47.26,72.38-41.89S4.62,205.91,9,213.46c3.5,6.08,72.42-50.39,76.08-44,4,6.95-81,61.21-76.8,68.45,3.91,6.79,79-52.32,81.85-47.37C94,197.22,7.36,252.79,10.95,259c3.35,5.81,96.47-64.63,100.27-58,4.57,7.94-100.77,77.12-97,83.63,2.95,5.12,80.83-55.12,84.44-48.87,3.21,5.57-88,66.81-83.91,73.86,3.38,5.87,86.93-58.74,90.57-52.42,3.51,6.09-89.71,67.3-85,75.42,4.18,7.27,92.73-63.22,96.86-56.06s-82.71,64.51-79,70.91c3,5.29,80.68-54.29,84-48.59,3.78,6.56-92.83,69-88.48,76.51,4.13,7.16,89.52-59.62,92.9-53.76,3.66,6.35-77.77,60.75-73.74,67.76,1.41,2.45,24.67-16.69,25.71-14.88s-12,26.18-11.15,27.72c1.48,2.57,32.69-22.65,34.3-19.85,2,3.47-26.14,38-24.32,41.15,2.18,3.78,50.58-34,52.62-30.45s-31.52,36.29-30.17,38.64c2.13,3.69,43.1-30.08,45.32-26.23,1.78,3.09-38.42,39.38-36.52,42.67,3.7,6.43,70.06-47.39,73-42.26,3.23,5.61-58.68,54-55.29,59.89,4.45,7.72,122.33-80.53,126.54-73.23,4.6,8-112.14,81.29-107.14,90,15.12,26.25,345.78-232.9,359.94-208.31,11.18,19.42-343.14,187.43-329,211.9,15.85,27.52,302.09-206.25,315.66-182.69,13.25,23-290,173.53-280.59,189.84,11.87,20.61,272.68-182.15,283.19-163.9,13.07,22.7-268.85,153.4-257.55,173C245.65,517,465.94,347.13,475.82,364.28c7.86,13.64-214.7,126.79-207,140.23,7.65,13.29,175.09-119,182.7-105.74,5,8.63-102.2,77.36-98.56,83.68,2.13,3.69,47.18-32.23,49.31-28.54" fill="none" stroke="#000" stroke-linecap="round" stroke-linejoin="round" stroke-width="6.97"/></g><g opacity="0.7" style="mix-blend-mode:multiply"><path d="M257.44,8c-5.16,0-10.28,3.63-15.36,3.94S232,13.74,226.9,14.37,216,11.53,211,12.49s-9.95,3.37-14.89,4.64-9.31,5-14.17,6.53-9,5-13.78,6.89-11.47-.6-16.1,1.58S145.28,41.52,140.8,44s-9.94,3.17-14.26,5.93-9.57,4.22-13.71,7.25-9.3,5-13.24,8.25S92.86,73.5,89.13,77s-6,8.5-9.55,12.25-8.43,6.26-11.71,10.22S61,107.27,58,111.43s-5.44,8.83-8.19,13.17-3.16,10.05-5.63,14.56-6.17,8.33-8.36,13-7,8.24-8.94,13S26.68,176.1,25.09,181s-3.28,9.7-4.55,14.7S17,205.44,16,210.51s-3.2,10-3.84,15.11-1,10.35-1.31,15.51.26,10.38.26,15.55.23,10.41.54,15.5,1.6,10.27,2.24,15.34,4.8,9.61,5.75,14.64-1.75,10.9-.48,15.85,7,8.63,8.56,13.5,2.08,10,4,14.78,3,9.8,5.2,14.44,2.3,10.39,4.77,14.88,6.09,8.41,8.84,12.74S59,394.86,62,399s1.36,11.95,4.63,15.9S77.47,419.06,81,422.8s5.4,9,9.14,12.51,6.46,8.25,10.41,11.52,9.66,4.28,13.81,7.31,6.4,8.88,10.73,11.64,9.87,3.6,14.37,6.08,7.8,7.5,12.44,9.69,10.16,2.67,14.94,4.56,10.75.27,15.65,1.86,9.65,3,14.64,4.24,9.63,3.31,14.69,4.28,9.91,2.4,15,3,10.15.68,15.3,1,10.15,2,15.31,2,10.18-2.53,15.26-2.85,10.75,4.09,15.81,3.45,10-3.68,15-4.63,10-2.68,14.91-3.95,9.51-4,14.37-5.57,10.21-1.9,15-3.79,8.72-5.63,13.35-7.82,10.41-2.17,14.89-4.65,8.82-5.39,13.14-8.14,6.18-9,10.32-12.07,9.88-3.83,13.82-7.11,8.71-5.67,12.45-9.19,5.95-8.58,9.46-12.32,9.41-5.44,12.68-9.4,3-10.68,6-14.84,8.79-6.41,11.54-10.75,1.78-10.84,4.26-15.35,9.78-6.53,12-11.19,3.42-9.87,5.32-14.66,2.42-10.12,4-15,.07-10.61,1.35-15.6,7.14-8.92,8.1-14-4.17-11-3.53-16.13,7.32-9.59,7.64-14.75-3.6-10.41-3.6-15.58-1.24-10.17-1.55-15.26,1.74-10.45,1.11-15.52,1.41-10.76.46-15.79-4.77-9.6-6-14.56-2.67-10-4.25-14.84-3.65-9.64-5.53-14.4-4.58-9.21-6.76-13.84-3-10-5.46-14.53-7-7.78-9.78-12.11-2.49-10.8-5.5-15-8-6.91-11.27-10.87-4.75-9.66-8.26-13.4-10.87-3.68-14.61-7.2-3.86-11.21-7.81-14.49-10.38-3.51-14.53-6.54-8.23-6.12-12.56-8.88S381,42,376.51,39.56s-9.15-4.95-13.8-7.14-9.21-4.95-14-6.85S338.92,22,334,20.41s-10-2.79-15-4.07-10.53-.24-15.59-1.2-9.91-3.36-15-4-10.6,3.87-15.75,3.55S262.61,8,257.44,8ZM402.3,178.11c-2.41,1.65-.85,6-.71,8.73.07,5.29,1,10.58.68,15.75s-5,10-5.66,15.19-.16,10.41-1.16,15.52.06,10.72-1.31,15.75-1.26,10.68-3,15.6-8.27,7.92-10.39,12.71.49,11.85-2,16.49-7,8.11-9.81,12.56-7.12,7.72-10.22,12-7.45,7.2-10.82,11.27c-3.13,3.74-4.94,8.41-8.24,11.86s-5.49,8.23-9,11.45-8.57,4.8-12.35,7.75-7.93,5.33-11.92,8-7.71,5.67-11.91,8-7.33,6.84-11.71,8.88-9.44,2.48-14,4.2-9.9.31-14.55,1.7-8.22,6.14-13,7.21-9.47,1.68-14.27,2.44c-5.09.79-10.28.19-15.31.65s-10.19-.69-15.25-.56-10.07.23-15.13,0-10.12.12-15.17-.47-10-1.28-15-2.25-10.07-1.31-15-2.64-10.86.4-15.69-1.3-8.15-7.22-12.86-9.28-11.23-.22-15.79-2.61-8.49-6.07-12.89-8.76c-.62-.55.08-3.44-.54-3.72,5.3.38,10.57,3,15.8,3s10.57-1.57,15.78-2.17,9.7-5,14.85-6.11,11.8,3.34,16.83,1.65,7.88-8.77,12.73-11c5.52-2.31,11.74-2.82,16.94-5.93,5-3,11.49-6.41,16.36-10.2-5.73-.27-12.85.54-18-.78-5.39-1.36-9.14-6.59-14-9.19-4.1-2.11-8.85-2.61-12.36-5.28s-4.7-7.76-7.69-11.09-6.83-5.55-9.22-9.43-7.54-6.24-9.29-10.51.62-7.34,5.36-6.93c5.07.49,9.33,1.67,13.39,1.52,5.08-.19,9,.67,12.92-.86-6.46-2.07-12.38-3-17.68-6.06-4.73-2.64-8.2-6.87-12.08-10-4.14-3.38-9.58-5.5-12.77-9.49s-1.84-11-4.12-15.69-5.93-8.35-7.23-13.55c-1.21-4.88-2.6-9.84-3-15.25-.34-3.44.92-4.69,3.94-3.18,4.49,2.41,8.55,5.54,13.53,6.77,4.69,1.16,8.31,1.28,13.65,1.62-4.88-4-6.69-8.08-10.34-11.94a65.68,65.68,0,0,1-9.05-11.62c-2.54-4.29-8.47-7.35-10.09-12.09s-.07-10.62-.75-15.58.46-10,.74-15-.93-10.28.35-15.11,6.08-8.22,8.38-12.67c1.79-3.58,2.09-5.94,4.7-2.77,3.32,3.84,4.12,9.88,7.61,13.43s10,4,13.72,7.35,4.08,10.89,8,13.94,8.76,5.34,12.93,8.1,9.24,4.32,13.61,6.77,10.16,2,14.72,4.12,7.26,8.57,12,10.36,11.3-2.31,16.13-.86,8,8.75,12.94,9.88,10.58-2,15.58-1.15c5.5.83,11.32,0,16.88.86,3.5.69,3.78,1.21,3.23-1.68-.89-5.07,1.66-10,1.81-15s-1.9-10.17-.71-15.07A83.45,83.45,0,0,1,268,139c3-4,6-8.25,9.9-11.6s8.87-4.77,13.36-7.3,8.52-6.84,13.47-8.39,10.77,1.22,16,.77,10.21-2.59,15.4-1.94,9.36,4.35,14.32,6.07,11.84-.81,16.33,1.94,5,10.32,8.84,14c2.48,2.34,7.08.1,10.25-.86,4.56-1.1,9.12-2.15,13.55-3.63s9.76-1,14-2.9,8.67-4,12.75-6.37c.83-.41-2.58-3.24-1.2-4.21a63.4,63.4,0,0,1-6.57,14.67,67.27,67.27,0,0,1-10.07,13.39c-4,4-7,9.54-12,13,4.67-.45,10.1.91,14.47-.07,4.52-1,7.56-7.07,11.86-8.47s9.72-3.19,14-4.83c.42,1.93-1,6-1.75,7.14-2.86,4-7.85,6.11-11.07,9.77s-5.65,7.88-9.24,11.21S406.21,175.14,402.3,178.11Z" fill="none" stroke="#000" stroke-linecap="round" stroke-linejoin="round" stroke-width="9.88"/></g><g opacity="0.8" style="mix-blend-mode:multiply"><path d="M257.44,15.26c-6.15,0-12.25-3.59-18.29-3.14s-12.7-2.28-18.7-1.38-12,3.67-17.88,5S191,20.24,185.23,22s-11.12,5.13-16.78,7.36-11.74,3.55-17.22,6.2-10.4,6.41-15.67,9.47-13.46,1.79-18.49,5.24-5.28,13.5-10,17.31S96.79,74.13,92.32,78.29,84.1,87.12,79.95,91.61s-12.65,5.25-16.46,10-6.45,10.67-9.9,15.73-2.21,13-5.27,18.3-11.41,7.75-14.07,13.28-5.93,11-8.17,16.72.21,13.12-1.59,19-7.76,10.65-9.12,16.65.6,12.67-.31,18.76,1,12.31.57,18.46.75,12,.75,18.17S13.54,268.92,14,275s-2.23,12.68-1.34,18.7.46,12.67,1.81,18.61,10.08,10.05,11.87,15.87S25.75,341.29,28,347s4.71,11.45,7.36,16.94,6.4,10.57,9.45,15.86,10.12,8,13.55,13,6.7,9.91,10.51,14.69,6.59,10.18,10.74,14.66,5.48,11.81,10,16,10.83,6.23,15.6,10.05,10.45,6.25,15.5,9.7,8.51,9.34,13.81,12.41,10.88,5.68,16.39,8.35,13.12.07,18.82,2.31,10.23,7,16.09,8.77,10.21,9.41,16.19,10.77,13.44-5.4,19.52-4.49,11.3,8.5,17.43,9,12.4-4.16,18.56-4.16,11.95-3.12,18-3.57,12.74,4.6,18.73,3.7,12.08-2.54,18-3.89,11-6.1,16.8-7.89,13.25.78,18.91-1.45,8.5-11,14-13.62,12.62-1.93,17.89-5,10.41-6.38,15.44-9.83,12.87-3.4,17.64-7.22,9.11-8.61,13.59-12.77,6.74-10.77,10.89-15.26,6.08-10.82,9.89-15.61,9.83-7.87,13.28-12.93,9.9-8.45,13-13.75,5.85-11.1,8.51-16.63.44-13.29,2.67-19,3.52-11.61,5.33-17.48,5.4-11.15,6.76-17.15,4.58-11.68,5.49-17.76-2.82-12.62-2.37-18.77,2.24-12,2.24-18.21-1.8-12.16-2.25-18.21-2.87-11.84-3.77-17.85,4.33-13.28,3-19.22-7.3-10.8-9.09-16.62-6.39-10.52-8.61-16.19,1.6-14-1-19.49-5.72-11-8.77-16.32-8.84-9-12.27-14-4.92-11.66-8.72-16.43S444.06,91.45,439.91,87s-13.58-3.75-18.06-7.91S416.31,66.8,411.54,63s-8.82-9-13.87-12.48-12-4.18-17.31-7.25-10.79-5.84-16.3-8.51-12.74-1-18.44-3.29S334.86,26,329,24.15s-10.63-7.39-16.62-8.75-12.81,2.45-18.88,1.54-11.91-.67-18-1.13S263.6,15.26,257.44,15.26ZM406.58,184c-2.41,1.65-5.16.13-5,2.89.08,6.63-3.53,12.93-4,19.38s.43,13.05-.58,19.45-.78,13.14-2.37,19.45-2.19,13.07-4.38,19.22-5.82,11.79-8.58,17.73-4.88,12.2-8.18,17.89-11.27,8-15.06,13.45-1.37,15.27-5.6,20.37c-3.92,4.69-9.26,8.3-13.45,12.53s-8.43,9-13,12.89-13,2.83-17.93,6.25-9.14,7.67-14.38,10.62-8.34,10.39-13.86,12.84-13.37-1.21-19.11.73-11.39,2.72-17.3,4.16S233.15,401,227.13,402c-6.38,1-13.14-2.79-19.42-2.32s-12.53,3.86-18.85,3.81-13,2.22-19.32,1.6-13.15-.17-19.4-1.37-11.93-5.72-18.07-7.51-10.94-7-16.91-9.38-10.74-6.3-16.5-9.19-14.78.55-20.3-2.83c-.62-.55.52-1.54-.1-1.81a176.28,176.28,0,0,0,19.88.35c6.61-.27,13.22-1.9,19.7-3s11.66-7,18-8.92a144.62,144.62,0,0,0,18.17-6.6c5.52-2.31,11.16-3.59,16.36-6.7,5-3,13.09-5,18-8.79-5.73-.27-13.32-.11-18.5-1.43-5.39-1.36-11.27-2.09-16.17-4.69-5.5-2.83-8.79-8.79-13.23-12.62a70.12,70.12,0,0,1-12.07-12.93c-3.35-4.8-11.14-7.87-13.5-13.59-1.65-4.27,2.72-7.58,7.46-7.16,11.41,1.1,24.41,3,31.42.2-6.46-2.07-18.61-1.12-23.9-4.15-6-3.33-7.22-12.7-11.85-16.88-5-4.47-12.6-6.1-16-11.54S93,243.7,91,237.29c-1.79-6,2.62-13.72,2.11-20.55-.34-3.44-1.42-2.65,1.61-1.13,4.49,2.41,10.18,1.07,15.16,2.3,4.69,1.16,11.78,4.33,17.12,4.67-4.88-4-14.7-4.89-18.34-8.75-4.11-4.37-4.74-12.08-7.57-17.37a75.74,75.74,0,0,1-6.59-16.77c-1.5-5.8,2.37-12,2.23-18s-.44-11.15.85-17,.26-12.07,3-17.42c1.79-3.58,3.69-5.2,6.3-2,4.16,4.81,6.21,11.41,10.62,15.76s6.89,11.54,11.67,15.51,10.32,7.87,15.46,11.41,13.35,2.6,18.81,5.66,11.3,5.17,17,7.72,10.73,6.77,16.7,8.8,11.44,5.83,17.59,7.34,13.06-1.63,19.34-.62c5.5.83,10.89,2.66,16.45,3.49,3.5.69,2.27-.65,1.73-3.54-1.07-6.1-3.16-12.77-2.73-18.75s8-10.92,9.87-16.67.43-13.06,3.71-18.2,5.46-12.13,9.93-16.35,13.46-2.39,18.86-5.43a65.59,65.59,0,0,1,16.73-7.07c6.11-1.62,11.77-5.28,18-5.28s12,3.46,18.12,5,10.5,5.39,16,8.45,14.67.93,19.23,5.37c2.48,2.34,3.23,7.4,6.39,6.43,6.84-1.66,14.45-2.16,21-4.69s11.88-8.48,18-12c.83-.41.31-1.82,1.69-2.78-1.83,5.77-.33,12.93-3.25,17.8s-8.06,9.23-12.21,13.42c-4,4-11.56,7.48-16.57,10.9,7.08-.68,14.61-6.14,21-7.93,6.68-1.86,13.59-5.15,20-7.61.42,1.93-3.07,5.08-3.83,6.18-4.3,6-3.69,16.17-8.79,21.41A158.49,158.49,0,0,1,406.58,184Z" fill="none" stroke="#000" stroke-linecap="round" stroke-linejoin="round" stroke-width="6.59"/></g></g></g></svg>