<svg xmlns="http://www.w3.org/2000/svg" viewBox="0 0 512 512"><title>youtube-handdrawn</title><g style="isolation:isolate"><g id="Layer_1" data-name="Layer 1"><path d="M139,162.5c9,15.66,209.33-139.77,217.37-125.8C364.29,50.39,173.78,145.23,181.7,159c6.47,11.23,194.81-130.91,202.66-117.29C390.79,52.85,216.9,150.26,222.67,160.3c7.48,13,175.32-120.43,183.51-106.21,7.33,12.72-149.88,92.41-142.63,105,4.81,8.36,139.57-95.1,145.76-84.36,5.14,8.92-124.34,79-119.75,87,5,8.74,130-87,135.09-78.18,4.34,7.54-82.65,63.27-79.34,69,4.33,7.53,88.75-60.61,92.74-53.67,3.57,6.2-75.08,61.55-72,66.81,2.73,4.74,91-61.39,94.77-54.85s-75.32,56.08-72.28,61.37c3.48,6,65.8-45.78,69.12-40,2.45,4.26-55.12,46.17-52.36,50.95,2.94,5.11,62.73-42,65.19-37.73,4,7-76.37,58.51-73.53,63.43,3.7,6.43,85.78-56.67,88.81-51.4,3.65,6.34-97.14,64-92.67,71.73,2.79,4.84,85.81-58.15,89.48-51.78,4.49,7.79-94.81,65.59-90.09,73.79,3.43,6,87.82-57.87,90.86-52.58,3.15,5.48-83.59,59.81-79.76,66.46,4.18,7.26,88.31-61.52,92.81-53.71s-97.21,71.51-93.29,78.33c4.81,8.34,97.64-66.37,101.9-59,5.77,10-110.84,78.24-106.11,86.46s105.36-71.4,109.86-63.58C515,264.41,372.35,336.7,378.88,348c5.48,9.52,112.1-75.7,116.77-67.58" fill="none" stroke="#000" stroke-linecap="round" stroke-linejoin="round" stroke-width="6.97"/><path d="M110.87,59.78c2.3,4,54.11-36.14,56.19-32.52,5.41,9.4-106.77,69.62-101.75,78.34C71.52,116.39,223.77-4.1,231.54,9.39c7,12.19-195.21,120.32-187.81,133.17C54.5,161.25,261.51-6.39,271.41,10.79,282.62,30.27,14.28,158.47,23.79,175,35.66,195.58,278.11-3.16,291.48,20,302.68,39.49,1.54,183.12,12.3,201.8c11.44,19.86,307.12-207.66,320-185.22C347.17,42.33,9.27,195.06,21.13,215.65,34.87,239.51,327.27,11.33,339,31.68,355.32,60-9.52,226.25,3.86,249.48,8.67,257.84,104.57,182.6,108.28,189,111.7,195,5.79,255.33,10.42,263.35c3.75,6.52,91.21-62.4,95.36-55.19,3.9,6.77-107.51,69.65-102.55,78.26,4,7,108.92-72,112.77-65.27S9.52,297.5,14,305.23s92.65-62.49,96.48-55.84c4.64,8.06-94.13,63.77-90.16,70.66,3.87,6.71,84.63-57.1,88.13-51,3.07,5.32-89.06,64.06-85,71.18s78-53.5,81.63-47.25c3.47,6-74,59.19-70.18,65.77,3.34,5.79,67-45.3,69.82-40.41,2.73,4.73-64.61,50.05-61.94,54.69,3.37,5.85,73.35-50.47,76.82-44.46,2.63,4.56-68,57.24-64.9,62.67,3,5.24,67.53-46.69,70.82-41,2.83,4.92-57.31,47.17-55.2,50.81,3.38,5.86,69.71-47,72.58-42,3.07,5.33-70.58,52.46-67.67,57.52,3.82,6.62,99.23-68.19,103.88-60.12,3.49,6.07-95.33,68.11-90.59,76.32,5.78,10,128.84-85.75,133.67-77.36,5.66,9.83-119,80.86-114.61,88.43,7,12.24,148.56-97.47,153.52-88.85,6.63,11.52-139.92,92-134,102.35C134.27,469.67,291.68,341.72,300.49,357c7.56,13.13-172.44,105.7-165.7,117.41,9.35,16.23,201.8-134,209.23-121.09,7.92,13.74-201.29,114.35-191.57,131.23,14.4,25,327.48-222.14,341.56-197.68,12.06,20.94-338.75,183.21-324.85,207.35,12.67,22,321.85-216.49,334.9-193.83C518.87,326.13,188.16,471.5,203,497.3c9.36,16.24,262.77-183.82,276.48-160,8.84,15.35-244.74,145.15-235.86,160.56,11.55,20,218.17-145.07,226.3-131,8.33,14.46-203.29,118.61-195.81,131.59,8.21,14.25,174.63-119.84,182.74-105.76C462.23,402,326.34,479.84,331,488c4,7,93.29-65.44,98.24-56.86" fill="none" stroke="#000" stroke-linecap="round" stroke-linejoin="round" stroke-width="6.97"/><g opacity="0.8"><path d="M149.73,156.31c8.65,15,194-135.75,204.11-118.13,5.84,10.14-163.5,102.74-156.35,115.15,6.59,11.44,175.09-119.64,183-105.91,6.21,10.78-148.68,95.11-142.22,106.32,5.73,10,147.21-100.86,154-89.12,6,10.44-131.41,83.68-124.93,94.93,6.87,11.92,134.89-93.15,141.4-81.84,5.21,9-100.81,73.35-96.37,81.06C318,168.57,433,79.58,437,86.61c3.5,6.08-81.23,63.46-76.9,71,3.7,6.42,86.78-60.21,91.09-52.72,3.55,6.17-68.93,57.37-66.18,62.14,3.73,6.47,81.12-53.92,84.13-48.69,3.11,5.41-83,65.53-79,72.47,2.81,4.88,72.08-48.88,75.17-43.51,2.74,4.75-65.16,56.26-61.79,62.11,3.24,5.62,79.82-55.2,83.71-48.44,4,7-84.32,68-81.23,73.38,3.46,6,71.42-51.48,75.8-43.87,4.48,7.77-83.85,66.1-80.06,72.67,3.47,6,83.28-57.25,87.19-50.46,4.93,8.55-96.85,67.75-92.61,75.11,4,6.88,95.84-64.27,99.64-57.67,4.84,8.41-108.54,79.89-104.64,86.66,3.2,5.56,97.94-64.73,101.42-58.69,3.88,6.74-101.52,73-97.31,80.33,5,8.7,103.93-68.48,107.53-62.23" fill="none" stroke="#000" stroke-linecap="round" stroke-linejoin="round" stroke-width="6.97"/><path d="M103.47,64.06c2.22,3.85,59.32-38.27,61-35.32,5,8.72-117.81,78.32-112.28,87.93,6.89,12,174.54-113.81,180.07-104.21,8,13.92-206.43,120.84-196.89,137.4C44.09,165,269.36-4.73,277.64,9.65,288.29,28.13,11.81,161.57,21.73,178.79,33.09,198.52,301-5.09,310.59,11.61,324.93,36.51,2,187.81,15.05,210.43,29.84,236.1,319.93,6.35,331.87,27.07,344.2,48.49-4.52,207,11.52,234.8c4.85,8.42,112.22-77.28,117.55-68,4.23,7.34-121.59,81.68-116.73,90.12,4.42,7.68,90.35-63,95-55,4.26,7.4-106.51,78-102.81,84.41,4.57,7.94,96.89-64.93,100.72-58.29,3.13,5.43-89.13,66-84.72,73.65,3.92,6.81,81.65-55.3,85.13-49.27,4,7-81.08,61.59-77.71,67.43,3.49,6.07,84.59-56.11,87.68-50.75,4.52,7.85-100.05,75.4-96.07,82.32,3.84,6.67,83.17-55.2,86.22-49.9,2.78,4.83-70.85,56.11-67.94,61.17,2.52,4.37,70.62-49.25,74.24-43,3.42,5.94-62.31,53-59.73,57.46,3.63,6.3,68-46.53,71.13-41.17C127,342.2,63,392.46,65.86,397.35c3.39,5.89,73.83-49.47,76.74-44.42,3.44,6-83,62.13-79.18,68.79,4.6,8,105.81-71.48,110.24-63.8,4.63,8-100.5,71.58-96.47,78.59,5.33,9.25,137.55-91.54,142.7-82.59,5.7,9.89-128.94,84.41-122.86,95,4.94,8.58,162.29-105.57,167.32-96.84,6.85,11.9-151,101.33-145.44,111,6,10.46,179.13-118,185.33-107.26,6.73,11.68-174.88,107.94-168,119.82,9.16,15.9,191.88-127.9,199.16-115.26,9.07,15.75-181.79,113.39-174,126.87C177.25,514.87,481.16,273.36,493.6,295c10,17.29-314,169.68-299.25,195.22C208,513.95,480.62,293.78,493.89,316.81,503.19,333,219,480.18,228.52,496.72,239,515,467.69,335.68,477.46,352.65c7.35,12.77-219.28,129.61-210.28,145.22,7.24,12.57,193.41-127.25,200-115.76C474.07,394,305.61,481.69,313,494.55,318.89,504.74,425,420,429.17,427.33" fill="none" stroke="#000" stroke-linecap="round" stroke-linejoin="round" stroke-width="6.97"/></g><g opacity="0.7" style="mix-blend-mode:multiply"><path d="M255.42,8.86c-5.16,0-10.45.45-15.54.76S229.7,12.35,224.64,13s-9.72,4.16-14.73,5.11-10.86-1.55-15.81-.28-10,2.9-14.82,4.48-10,3-14.72,4.86-7.82,7.77-12.45,10S143.27,42,138.79,44.5s-9,4.64-13.33,7.39-8.12,6-12.26,9.05S101.4,62.5,97.46,65.77,91.77,75,88,78.5s-9.53,5.09-13,8.84-3.79,10.4-7.07,14.36-6.55,7.8-9.57,12-6.46,8-9.21,12.3-6.13,8.29-8.61,12.8-5,9-7.16,13.68-3,9.87-4.9,14.67-2.12,10-3.71,14.94-4.36,9.31-5.64,14.31-2.08,10-3,15.05-1.23,10.09-1.87,15.22-.38,10.13-.7,15.29-1.6,10.09-1.6,15.26-3.57,10.47-3.26,15.56,6.28,9.75,6.91,14.82-2.17,10.7-1.21,15.72-.61,10.82.66,15.78,7.69,8.54,9.27,13.41,1.83,10.21,3.71,15,6,8.52,8.18,13.16,2.69,10.07,5.16,14.56,3.21,10.09,6,14.42,5,9.2,8,13.35,9.16,5.94,12.43,9.9,4.39,9.85,7.9,13.6,7.81,6.83,11.55,10.35,6.43,8.41,10.38,11.69,11.26,2.25,15.4,5.27,5.16,10.71,9.49,13.48,11.91,0,16.41,2.51,8.11,6.38,12.76,8.57,9.6,3.36,14.38,5.26,8.55,6.41,13.44,8,9.46,4.54,14.45,5.82S204,500.08,209,501s10.9-3.37,16-2.73,10.07.23,15.22.55,10,4.27,15.18,4.27,10.16-2.84,15.24-3.15,10.35,1,15.41.37,10.11-1.71,15.13-2.66,9.67-3.48,14.62-4.75,10-1.93,14.89-3.51,9.94-2.56,14.69-4.45,10.56-1.6,15.18-3.79,8.24-6.59,12.72-9.07,7.8-6.84,12.12-9.59,10.51-2.75,14.65-5.78,5.92-9.07,9.86-12.35,7.38-6.91,11.11-10.43,7.83-6.48,11.34-10.22,8.61-6,11.88-10,4.63-9.34,7.65-13.5,5.65-8.42,8.4-12.76,6.86-7.77,9.34-12.28,7.8-7.63,10-12.29,4.57-9.42,6.46-14.21-2.1-11.68-.51-16.59,7.54-8.46,8.81-13.46S493,307.87,494,302.8s6.46-9.38,7.1-14.51,0-10.43.36-15.59-3.59-10.34-3.59-15.52,1.39-10.26,1.07-15.36-2.62-10-3.25-15.07,3.53-11,2.58-16-2.88-10-4.15-15-6.81-8.7-8.39-13.57-1-10.46-2.93-15.23-6-8.51-8.18-13.15-1.74-10.58-4.21-15.08-7.73-7.29-10.48-11.62-3.13-10.22-6.15-14.37-4.89-9.31-8.16-13.27-10.66-4.23-14.17-8-5.11-9.25-8.84-12.76S414,73,410.1,69.74s-6.68-8-10.83-11-8.65-5.48-13-8.25-7.94-6.74-12.44-9.23-8.7-5.7-13.35-7.9-9.16-5-13.94-6.9-9.6-4.12-14.49-5.72-11,1-16-.3S306,19,300.94,18s-9.91-2.1-15-2.74-9.86-4.45-15-4.77S260.58,8.86,255.42,8.86ZM396.79,311.73A40,40,0,0,1,395,325c-1.5,4.59-1.78,9.24-4.57,13.05s-4.47,9.3-8.34,12.09-9.79,1.67-14.38,3.15a42.67,42.67,0,0,1-13.52,2.27c-7.59,0-7.59-.43-15.19-.43s-7.59,4.18-15.19,4.18-7.59.5-15.19.5-7.59-.45-15.18-.45-7.59.56-15.18.56-7.6-5.87-15.19-5.87-7.6,3.29-15.19,3.29-7.6-3-15.19-3-7.6,4.19-15.19,4.19-7.59-.24-15.19-.24-7.6-.71-15.2-.71-7.6-.9-15.21-.9-7.6-.17-15.21-.17c-4.9,0-9.84.52-14.27-.9-4.59-1.47-10-2.48-13.81-5.24S122,342.81,119.14,339a47,47,0,0,1-6.91-12.81c-1.44-4.42-2.79-9.51-2.79-14.43,0-7.76-.72-7.76-.72-15.52s1.13-7.76,1.13-15.52,3.74-7.76,3.74-15.53-5.51-7.76-5.51-15.52,3.64-7.77,3.64-15.53,2.78-7.77,2.78-15.54-5.18-7.77-5.18-15.54c0-4.93,2.36-9.75,3.81-14.2,1.5-4.61,1.89-10.31,4.67-14.15s8-6.22,11.81-9,8.93-3,13.52-4.49c4.44-1.45,8.65-1.28,13.56-1.28,7.59,0,7.59-3.77,15.19-3.77s7.59,3.06,15.19,3.06,7.59-.87,15.19-.87,7.59,1.88,15.18,1.88,7.59-5.31,15.18-5.31,7.6,5.79,15.19,5.79,7.6-6.23,15.19-6.23,7.6,1.82,15.19,1.82,7.6-.9,15.19-.9,7.59,3,15.19,3,7.6,1.56,15.2,1.56,7.6.27,15.21.27,7.6-5.19,15.21-5.19c4.91,0,10.64.08,15.08,1.53,4.59,1.5,7.52,7.25,11.34,10.06s9.3,4.54,12.11,8.41,3.57,9.27,5.07,13.87A46.38,46.38,0,0,1,400.29,203c0,7.76,1.45,7.76,1.45,15.52s-.78,7.76-.78,15.52-.81,7.76-.81,15.53-2.57,7.76-2.57,15.52,2.27,7.77,2.27,15.53,3,8.1,2,15.81C400.89,304.35,396.79,304,396.79,311.73Z" fill="none" stroke="#000" stroke-linecap="round" stroke-linejoin="round" stroke-width="9.88"/></g><g opacity="0.8" style="mix-blend-mode:multiply"><path d="M255.42,13.53c-6.15,0-12,1.7-18.06,2.14s-11.89,1.57-17.89,2.47-13-3.13-18.89-1.78S188.84,20.17,183,22s-12.56,1.58-18.22,3.81-8.61,10.81-14.1,13.46-10.4,5.88-15.67,8.94-13.3,1.63-18.33,5.07-9,8.46-13.77,12.27-11.42,5.61-15.89,9.77S77,82.88,72.84,87.36,69,100.31,65.16,105.09s-7.91,9.24-11.36,14.3S44.41,128,41.35,133.29s-6.72,10.5-9.38,16-2.61,12.34-4.85,18,.39,12.91-1.42,18.78S22.35,197.54,21,203.53s-7.23,10.9-8.14,17-3.12,12-3.57,18.16.83,12.32.83,18.49-.9,12.41-.45,18.46,2.76,12.11,3.66,18.12,4.1,11.64,5.44,17.57-3,13.58-1.2,19.4,5.91,11.16,8.14,16.83,4.93,11.37,7.57,16.86S40.15,374.71,43.2,380s5,11.41,8.43,16.46S58.26,407,62.07,411.75s8.6,8.93,12.76,13.41S84.55,432.79,89,437s6.12,11.87,10.9,15.69,12,4.71,17,8.17,12.65,2.61,17.95,5.68,9.92,6.83,15.43,9.49,11.52,3.43,17.22,5.68,9.19,10.43,15,12.24,11.66,4.35,17.64,5.71,12,3.57,18.08,4.48,12.54-.58,18.68-.13,12.3-3.34,18.45-3.34,12.18.63,18.22.18,12.5,1.44,18.5.55,12.63-.11,18.55-1.45,11.09-6.43,16.9-8.22,11.5-4.13,17.16-6.36,10.74-5.79,16.22-8.44,13.57-.68,18.84-3.74,10.3-7.09,15.33-10.53,9.39-8.19,14.16-12,9.41-8,13.88-12.18,6.23-11.07,10.38-15.55,8-9,11.84-13.82,7.13-9.75,10.57-14.81,9.3-8.53,12.36-13.84,5.51-11,8.17-16.5,5.29-11.07,7.53-16.78,7.64-10.46,9.45-16.33,1-12.6,2.37-18.6-1.2-12.63-.29-18.72,7.61-11.5,8.06-17.65-6.3-12.47-6.3-18.64,4.09-12.39,3.64-18.45-7.06-11.45-8-17.46,2.71-12.83,1.36-18.77-6.24-10.91-8-16.73,2.41-13.85.19-19.52-11.26-8.43-13.9-13.93-1.18-13.13-4.23-18.41-8-9.43-11.45-14.47-6.71-10.19-10.51-15-5.93-11.11-10.08-15.59-7.73-9.83-12.21-14-12.13-4.74-16.9-8.56-8.44-9.09-13.49-12.55-12.26-3.25-17.56-6.32S368.52,35.87,363,33.21s-10.87-6.27-16.57-8.51-13.53,1.5-19.39-.3-11.78-2.4-17.77-3.77-11.8-1.87-17.87-2.78S280.12,9.22,274,8.77,261.57,13.53,255.42,13.53Zm146,298.2c0,6.19,0,13.3-2.24,18.65-2.32,5.56-6.09,11.92-10.3,16.09s-12.39,3.43-18,5.71c-5.36,2.2-10.64,4.16-16.79,4.16-9,0-9-2.44-18-2.44s-9,6.68-18,6.68-9,.54-17.94.54-9-5.5-17.95-5.5-9,1.66-17.95,1.66-9-3-17.95-3-9-1.53-18-1.53-9,5.74-18,5.74-9-.65-18-.65-9-3.16-18-3.16-9-.81-18-.81c-6.15,0-11.87,1.59-17.24-.61-5.57-2.28-13.86-2.08-18.06-6.24a54.39,54.39,0,0,1-10.83-16.19c-2.23-5.35,1.07-12.92,1.07-19.11,0-9.05,1.54-9.05,1.54-18.11s-1.51-9.06-1.51-18.11,1.13-9.06,1.13-18.12-1.64-9.06-1.64-18.11S109,230.22,109,221.16s6.16-9.06,6.16-18.12c0-6.19-1-11.35,1.18-16.74A42.4,42.4,0,0,1,125.7,172c4.2-4.22,8.06-8.63,13.62-11,5.38-2.25,11.18-1.86,17.35-1.86,9,0,9,.68,18,.68s9-.94,18-.94,9-1.73,17.94-1.73,9,4.76,17.95,4.76,9-3.57,17.95-3.57,9-4.78,17.95-4.78,9,1.15,18,1.15,9-1.71,18-1.71,9,6.57,18,6.57,9,1,18,1,9,1.05,18,1.05c6.17,0,11.26-1.12,16.63,1.13,5.56,2.33,12.73,2.43,16.93,6.65s7.2,10.19,9.52,15.77c2.23,5.39,1,11.71,1,17.9,0,9.05-2,9.05-2,18.11s3.56,9.06,3.56,18.11.32,9.06.32,18.12,1.23,9.06,1.23,18.11-6.09,9.33-5.52,18.38S401.44,302.67,401.44,311.73Z" fill="none" stroke="#000" stroke-linecap="round" stroke-linejoin="round" stroke-width="6.59"/></g><path d="M228.76,183.42c.07.12,1.48-1,1.54-.89.79,1.38-4,22.49-3.33,23.7S247.4,193,248,194c1.55,2.68-21.69,28.07-20.21,30.64,1.34,2.32,40.79-27.27,42.37-24.52,1.77,3.08-43.67,38.34-41.34,42.39,2.17,3.77,41.76-29.43,44-25.48,2.54,4.41-44.13,42.36-42.42,45.33,2.44,4.23,60.4-40.67,62.86-36.38,3.13,5.43-70.58,54.37-67,60.6s76.84-52,80.07-46.34c3.67,6.37-75.92,55.35-72.13,61.93,3.15,5.46,84.28-57.16,87.9-50.87,4,7-92.55,67.21-89.23,73,2.11,3.66,35.2-25,37.21-21.53" fill="none" stroke="#000" stroke-linecap="round" stroke-linejoin="round" stroke-width="6.97"/><g opacity="0.8"><path d="M219.8,188.6c0,.09,12.89-7.64,13-7.51,1.06,1.84-1.71,25-.92,26.33,1,1.7,22.08-14.39,22.77-13.18,1.73,3-30.4,39.35-28.81,42.1,1.89,3.27,42.56-28,44-25.47,2.77,4.8-44.73,45.81-42.76,49.24,2.76,4.79,50.72-35.79,53.5-31,2,3.4-46.1,44.42-44.29,47.56,3.33,5.79,61.61-43.69,65.08-37.66s-75.16,55.22-71.46,61.64c3.14,5.45,93-63.95,97.38-56.36,3.75,6.51-99.14,71.3-95.13,78.27,2.74,4.75,49.12-34,51.54-29.83" fill="none" stroke="#000" stroke-linecap="round" stroke-linejoin="round" stroke-width="6.97"/></g><path d="M336.42,257.31c0,8.08-8.78,6.17-15.3,10.92s-6.12,5.31-12.65,10.06-7.14,3.9-13.67,8.65-7.87,2.89-14.4,7.65-6.8,4.37-13.33,9.12-6.83,4.33-13.36,9.09S247,317.25,240.42,322s-3.17,11.9-10.58,8.68c-7-3,1-4.92,1-12.52s-1-7.6-1-15.2.56-7.6.56-15.21-4.95-7.6-4.95-15.21,3.14-7.6,3.14-15.21-3.33-7.61-3.33-15.21,1.92-7.6,1.92-15.2.66-7.61.66-15.22,2.91-7.61,2.91-15.23-8.07-10-1.12-13c7.39-3.24,6.91.72,13.43,5.47s4.53,7.51,11.05,12.26,6.92,4.21,13.45,9,8.65,1.83,15.17,6.58,5.93,5.58,12.45,10.33,6.45,4.86,13,9.61,3.91,9.43,11.48,12.25C329.24,252.47,336.41,249.22,336.42,257.31Z" fill="none" stroke="#000" stroke-linecap="round" stroke-linejoin="round" stroke-width="9.88" opacity="0.7" style="mix-blend-mode:multiply"/><path d="M337.06,257.31c0,9.24-13.88,2-21.33,7.42S311,274,303.58,279.41s-7.88,4.85-15.34,10.28-5.47,8.17-12.92,13.6-8,4.71-15.45,10.14-6.13,7.28-13.6,12.71-7.64,8.25-15.75,3.84c-8.33-4.54-4.28-6.12-4.28-15.62s5.91-9.5,5.91-19-3.27-9.5-3.27-19,1.46-9.5,1.46-19-3.89-9.51-3.89-19-1.42-9.51-1.42-19,2.75-9.51,2.75-19-7.5-14.57.83-19.13c8.09-4.43,9.13,3.31,16.59,8.74s3.21,11.29,10.67,16.72,8.32,4.24,15.78,9.68,11.19.27,18.65,5.7,6.19,7.19,13.65,12.62,6,7.4,14.69,10.61C329.69,249.3,337.05,248.06,337.06,257.31Z" fill="none" stroke="#000" stroke-linecap="round" stroke-linejoin="round" stroke-width="6.59" opacity="0.8" style="mix-blend-mode:multiply"/></g></g></svg>